<svg xmlns="http://www.w3.org/2000/svg" width="172.613" height="172.637" viewBox="0 0 172.613 172.637">
  <g id="cta" transform="translate(-1464.941 -959.915)">
    <rect id="Rectangle_12" data-name="Rectangle 12" width="172.561" height="172.561" transform="translate(1464.994 959.991)" fill="none"/>
    <g id="Group_12" data-name="Group 12" transform="translate(1464.941 959.915)">
      <g id="Group_11" data-name="Group 11" transform="translate(0 0)">
        <g id="Group_10" data-name="Group 10">
          <path id="Path_8" data-name="Path 8" d="M782.86,305.61c-2.055,2.972-.344,5.991,2.174,7.731,2.536,1.753,5.963,2.289,8.018-.684a4.2,4.2,0,0,0-.77-6.063l1.088-1.573a6.145,6.145,0,0,1,1.081,8.6c-2.37,3.427-6.729,3.9-10.5,1.29-3.76-2.6-4.855-6.845-2.486-10.272a6.145,6.145,0,0,1,8.046-2.293l-1.088,1.574A4.3,4.3,0,0,0,782.86,305.61Z" transform="translate(-766.08 -267.648)" fill="#fff"/>
          <path id="Path_9" data-name="Path 9" d="M800.771,292.85c-3.12-3.337-3.211-7.79.048-10.837s7.7-2.658,10.815.679,3.226,7.8-.034,10.852S803.891,296.187,800.771,292.85ZM810.238,284c-2.234-2.39-5.464-3.356-8.258-.744s-2.047,5.9.188,8.289,5.479,3.371,8.272.759S812.473,286.388,810.238,284Z" transform="translate(-773.532 -258.748)" fill="#fff"/>
          <path id="Path_10" data-name="Path 10" d="M818.938,266.109l2.006-1.2,12.939,6.841.036-.021-6.431-10.739,1.641-.983,7.805,13.036-2.005,1.2-12.917-6.8-.037.022,6.409,10.7-1.641.982Z" transform="translate(-781.945 -250.581)" fill="#fff"/>
          <path id="Path_11" data-name="Path 11" d="M847.177,254.182l-4.738,1.769-.594-1.593,11.268-4.206.594,1.593-4.738,1.769,4.719,12.641-1.792.669Z" transform="translate(-791.329 -246.545)" fill="#fff"/>
          <path id="Path_12" data-name="Path 12" d="M869.86,259.123l-.558,3.994-1.936.392,2.483-16,2.083-.421,8.491,13.782-1.937.392L876.42,257.8Zm5.619-2.872-4.217-7.233-.041.008-1.073,8.3Z" transform="translate(-801.784 -245.287)" fill="#fff"/>
          <path id="Path_13" data-name="Path 13" d="M896.068,245.742c-3.612.058-5.07,3.206-5.021,6.266.05,3.081,1.609,6.18,5.221,6.122a4.2,4.2,0,0,0,4.482-4.153l1.913-.031a6.145,6.145,0,0,1-6.367,5.884c-4.165.067-7.087-3.2-7.161-7.792-.074-4.569,2.742-7.93,6.906-8a6.143,6.143,0,0,1,6.545,5.208l-1.912.031A4.3,4.3,0,0,0,896.068,245.742Z" transform="translate(-810.702 -244.041)" fill="#fff"/>
          <path id="Path_14" data-name="Path 14" d="M921.354,247.42l-4.987-.847.285-1.676,11.859,2.014-.284,1.676-4.987-.847-2.259,13.3-1.885-.32Z" transform="translate(-821.859 -244.392)" fill="#fff"/>
          <path id="Path_15" data-name="Path 15" d="M948.3,252.921l2.368,1.109-1.044,13.454.038.018,9.668-9.415,2.368,1.109-6.447,13.764-1.733-.812,5.3-11.319-.038-.018-9.459,9.371-1.54-.721,1.144-13.267-.038-.018-5.3,11.318-1.733-.811Z" transform="translate(-832.297 -247.679)" fill="#fff"/>
          <path id="Path_16" data-name="Path 16" d="M980.734,279.759l-1.026,1.355-6.219-4.707-3.207,4.236,7.235,5.477-1.026,1.355-8.76-6.632,9.172-12.115,8.556,6.478-1.027,1.356-7.032-5.324-2.885,3.812Z" transform="translate(-842.901 -254.155)" fill="#fff"/>
          <path id="Path_17" data-name="Path 17" d="M993.642,302.662l-3.8,1.352-1.243-1.537,15.34-5.2,1.337,1.652-8.3,13.9-1.243-1.536,2.115-3.434Zm5.144,3.655,4.465-7.084-.027-.033-7.86,2.888Z" transform="translate(-851.45 -265.852)" fill="#fff"/>
          <path id="Path_18" data-name="Path 18" d="M1017.22,313.314l1.093,2.066-7.515,12.556.02.038,11.062-5.852.894,1.691-13.428,7.1-1.093-2.066,7.478-12.537-.021-.038-11.024,5.832-.894-1.69Z" transform="translate(-857.674 -272.42)" fill="#fff"/>
          <path id="Path_19" data-name="Path 19" d="M1029.281,339.6l1.554,5.279c1.182,4.016-.7,7.25-5.39,8.63s-8-.325-9.184-4.341l-1.554-5.279Zm-12.4,5.644,1.014,3.445c1.091,3.71,4.16,3.826,7.014,2.986s5.391-2.605,4.3-6.315l-1.014-3.445Z" transform="translate(-862.145 -283.189)" fill="#fff"/>
          <path id="Path_20" data-name="Path 20" d="M1037.147,377.769l-13.482.629.372,7.962-1.7.079-.46-9.872,15.18-.709Z" transform="translate(-865.083 -298.042)" fill="#fff"/>
          <path id="Path_21" data-name="Path 21" d="M1029.071,407.031l-1.688-.207.949-7.742-5.275-.646-1.1,9.008-1.687-.207,1.336-10.906,15.084,1.848-1.306,10.654-1.687-.207,1.073-8.755-4.747-.581Z" transform="translate(-864.423 -306.429)" fill="#fff"/>
          <path id="Path_22" data-name="Path 22" d="M1029.936,427.859l1.5-4.83,1.623.505-3.573,11.487-1.624-.505,1.5-4.829-12.888-4.01.568-1.826Z" transform="translate(-862.872 -317.367)" fill="#fff"/>
          <path id="Path_23" data-name="Path 23" d="M1032.046,446.554a1.118,1.118,0,0,1,.653,1.553c-.323.718-1.089.816-2,.406-1.028-.462-2.484-1.629-2.074-3.263l.969.436a1.421,1.421,0,0,0,.941,1.589C1030.611,446.585,1031.193,446.171,1032.046,446.554Z" transform="translate(-867.818 -326.47)" fill="#fff"/>
          <path id="Path_24" data-name="Path 24" d="M1004.752,456.508c-1.9-1.133-2.827-3.6-.854-6.9,1.842-3.083,4.911-4.491,8.012-2.886l-.981,1.642c-1.9-.885-3.937-.62-5.572,2.116-1.351,2.262-.792,3.686.376,4.383,1.787,1.069,2.694.3,5.112-2.217,1.622-1.679,3.693-3.611,6.228-2.1,2.061,1.232,2.481,3.636.759,6.518-1.657,2.773-4.235,3.856-7.066,2.462l.981-1.642c1.893.809,3.393.369,4.625-1.692,1.1-1.842.978-3.252-.1-3.9-1.733-1.035-2.809.227-4.428,1.86C1009.362,456.664,1007.725,458.285,1004.752,456.508Z" transform="translate(-857.267 -326.8)" fill="#fff"/>
          <path id="Path_25" data-name="Path 25" d="M994.431,484.3c2.57-2.541,1.446-5.823-.706-8s-5.436-3.353-8.007-.812a4.2,4.2,0,0,0-.365,6.1l-1.36,1.345a6.145,6.145,0,0,1,.53-8.655c2.963-2.929,7.334-2.588,10.562.677,3.213,3.25,3.5,7.625.541,10.554a6.144,6.144,0,0,1-8.331.764l1.36-1.345A4.3,4.3,0,0,0,994.431,484.3Z" transform="translate(-848.935 -337.544)" fill="#fff"/>
          <path id="Path_26" data-name="Path 26" d="M978.01,497.973l-5.134,3.412c-2.5,1.658-5.071,1.43-6.565-.817-1.211-1.824-1.015-3.409.148-4.692l-.024-.035c-3.179,1.322-5.458-4.334-6.254-4.112l-.071-.106,1.717-1.141c.9.166,2.744,5.55,5.949,3.421l3.628-2.411-3.4-5.115,1.594-1.059Zm-5.664-5.066-3.168,2.106c-1.31.87-2.85,2.123-1.391,4.318s3.211,1.26,4.521.39l3.168-2.106Z" transform="translate(-839.779 -342.885)" fill="#fff"/>
          <path id="Path_27" data-name="Path 27" d="M945.1,509.03l-.669-1.563,7.17-3.068-2.09-4.884-8.342,3.569-.668-1.563,10.1-4.322,5.977,13.97-9.866,4.221-.669-1.563,8.108-3.469-1.881-4.4Z" transform="translate(-831.744 -347.752)" fill="#fff"/>
          <path id="Path_28" data-name="Path 28" d="M927.8,509.489l.492-4,1.93-.424-2.22,16.042-2.076.456-8.717-13.64,1.93-.424,2.124,3.428Zm-5.571,2.965,4.336,7.162.041-.009.936-8.32Z" transform="translate(-822.205 -350.974)" fill="#fff"/>
          <path id="Path_29" data-name="Path 29" d="M907.792,523.44l5.049-.3.1,1.7-12.007.719-.1-1.7,5.049-.3-.806-13.47,1.909-.115Z" transform="translate(-815.495 -352.983)" fill="#fff"/>
          <path id="Path_30" data-name="Path 30" d="M877.7,517.123l.2-1.688,7.746.906.617-5.276-9.012-1.054.2-1.688,10.911,1.276-1.764,15.09-10.658-1.246.2-1.688,8.759,1.024.555-4.749Z" transform="translate(-805.294 -352.309)" fill="#fff"/>
          <path id="Path_31" data-name="Path 31" d="M847.056,503.671c.776-2.069,3.031-3.425,6.633-2.075,3.363,1.26,5.3,4.028,4.274,7.366l-1.791-.671c.532-2.025-.095-3.985-3.08-5.1-2.468-.924-3.768-.119-4.245,1.155-.731,1.949.19,2.7,3.1,4.632,1.943,1.3,4.214,2.987,3.177,5.752-.843,2.249-3.133,3.093-6.277,1.914-3.024-1.133-4.552-3.477-3.687-6.511l1.79.671c-.457,2.007.245,3.4,2.493,4.247,2.01.754,3.375.38,3.815-.793.709-1.891-.726-2.724-2.622-4.024C847.729,508.235,845.84,506.915,847.056,503.671Z" transform="translate(-792.588 -349.332)" fill="#fff"/>
          <path id="Path_32" data-name="Path 32" d="M832.5,501.234c-2.439,3.864-6.723,5.079-10.5,2.7s-4.52-6.773-2.082-10.637,6.734-5.1,10.508-2.716S834.935,497.371,832.5,501.234Zm-10.962-6.918c-1.746,2.767-1.862,6.137,1.373,8.178s6.226.486,7.972-2.281,1.874-6.155-1.361-8.2S823.281,491.549,821.534,494.316Z" transform="translate(-781.769 -344.543)" fill="#fff"/>
          <path id="Path_33" data-name="Path 33" d="M799.973,486.629l-1.832-1.864,5.67-12.24-.029-.03-12.341,5.449-1.831-1.865,10.84-10.646,1.34,1.364-8.914,8.755.03.03,12.13-5.481,1.191,1.213-5.7,12.03.03.03,8.914-8.755,1.34,1.364Z" transform="translate(-769.93 -334.738)" fill="#fff"/>
          <path id="Path_34" data-name="Path 34" d="M780.35,452.16l1.434-.914,4.192,6.579,4.481-2.855-4.877-7.654,1.434-.914,5.905,9.267L780.1,463.836l-5.768-9.052,1.435-.914,4.74,7.439,4.033-2.57Z" transform="translate(-763.672 -326.942)" fill="#fff"/>
          <path id="Path_35" data-name="Path 35" d="M767.776,441.06l1.914,4.683-1.574.643-4.553-11.135,1.574-.643,1.914,4.682,12.493-5.108.724,1.77Z" transform="translate(-759.259 -321.936)" fill="#fff"/>
          <path id="Path_36" data-name="Path 36" d="M759.453,416.915l6.334-1.271-1.6-7.959-6.334,1.271-.376-1.876,14.9-2.988.376,1.875-6.9,1.384,1.6,7.959,6.9-1.384.376,1.875-14.9,2.988Z" transform="translate(-756.768 -309.609)" fill="#fff"/>
          <path id="Path_37" data-name="Path 37" d="M756.809,397.33l15.167-.96.121,1.909-15.168.959Z" transform="translate(-756.493 -306.446)" fill="#fff"/>
          <path id="Path_38" data-name="Path 38" d="M756.273,381.916l.162-2.333,13.013-6.7,0-.043-12.489-.865.132-1.908,15.161,1.05-.162,2.332-12.971,6.709,0,.042,12.447.862-.132,1.908Z" transform="translate(-756.273 -295.668)" fill="#fff"/>
          <path id="Path_39" data-name="Path 39" d="M763.187,347.087c-.994,3.473,1.793,5.861,4.53,6.645,2.758.789,6.269.645,7.322-3.033a4.766,4.766,0,0,0-3.255-6.082l-1.362,4.76-1.635-.468,1.889-6.6,7.6,2.175-.351,1.226-2.239.022-.012.041a5.478,5.478,0,0,1,1,5.392c-1.216,4.249-5.07,5.667-9.483,4.4-4.392-1.257-6.8-4.906-5.638-8.952,1.058-3.7,3.534-5.089,6.458-4.8l-.526,1.839C765.279,343.485,763.819,344.88,763.187,347.087Z" transform="translate(-758.318 -284.081)" fill="#fff"/>
        </g>
      </g>
    </g>
  </g>
</svg>
