<svg xmlns="http://www.w3.org/2000/svg" width="40.5" height="37.941" viewBox="0 0 40.5 37.941">
  <g id="icon_skill-design" transform="translate(-503 -3614.676)">
    <g id="Group_208" data-name="Group 208" transform="translate(-961.979 3296.319)">
      <path id="Path_85" data-name="Path 85" d="M1502.1,344.3a3.375,3.375,0,0,1-1.155-6.546l.157-.058-.011-.168a15.975,15.975,0,0,0-12.217-14.4l-.276-.065v2.041h-6.75v-2.041l-.276.065a15.976,15.976,0,0,0-12.217,14.4l-.011.167.158.057a3.376,3.376,0,1,1-2.252-.02l.142-.049.009-.151a17.741,17.741,0,0,1,8.939-14.412l.729-.419h-5.487l-.053.149a3.375,3.375,0,1,1,0-2.249l.053.149h10.266v-2.4h6.75v2.4h10.266l.053-.149a3.375,3.375,0,1,1,0,2.249l-.053-.149h-5.487l.729.419a17.739,17.739,0,0,1,8.939,14.41l.008.151.142.049a3.374,3.374,0,0,1-1.1,6.565Zm0-4.8a1.424,1.424,0,1,0,1.424,1.424A1.426,1.426,0,0,0,1502.1,339.5Zm-33.751,0a1.424,1.424,0,1,0,1.424,1.424A1.426,1.426,0,0,0,1468.354,339.5Zm33.751-19.195a1.424,1.424,0,1,0,1.424,1.424A1.426,1.426,0,0,0,1502.1,320.308Zm-18.3,2.848h2.848v-2.848h-2.848Zm-15.452-2.848a1.424,1.424,0,1,0,1.424,1.424A1.426,1.426,0,0,0,1468.354,320.308Z" transform="translate(0 0)" fill="#fff"/>
      <path id="Path_86" data-name="Path 86" d="M1497.409,371.089v-6.75h4.2l-4.333-8.665,8.31-13.85,8.31,13.85-4.333,8.665h4.2v6.75Zm1.95-1.951H1511.8v-2.848h-12.446Zm.137-13.378,4.289,8.579h3.593l4.289-8.579-5.11-8.518v9.451h-1.951v-9.451Z" transform="translate(-20.353 -14.791)" fill="#fff"/>
    </g>
  </g>
</svg>
