<svg id="logo" xmlns="http://www.w3.org/2000/svg" width="33.621" height="33.411" viewBox="0 0 33.621 33.411">
  <path id="Path_120" data-name="Path 120" d="M165.242-732.319a.84.84,0,0,1-.839-.839V-752.1h1.677V-734h14.337v-12.683h1.677v13.522a.839.839,0,0,1-.839.839Z" transform="translate(-164.196 752.115)" fill="#fff"/>
  <rect id="Rectangle_77" data-name="Rectangle 77" width="4.428" height="1.677" transform="translate(29.067 3.496)" fill="#fff"/>
  <rect id="Rectangle_78" data-name="Rectangle 78" width="4.428" height="1.677" transform="translate(29.067)" fill="#fff"/>
  <path id="Path_121" data-name="Path 121" d="M164.138-715.786v-1.677H196v-11.658h-8.1a1.543,1.543,0,0,1-1.156-.291.881.881,0,0,1,.084-1.265l7.765-6.434H174.909v-1.677h22.011a.842.842,0,0,1,.759.481.842.842,0,0,1-.113.892l-7.889,6.619h7.157a.838.838,0,0,1,.838.838v13.336a.839.839,0,0,1-.838.839Z" transform="translate(-164.138 749.197)" fill="#fff"/>
</svg>
